<svg xmlns="http://www.w3.org/2000/svg" viewBox="0 0 632 346"><defs><style>.cls-1{font-size:200px;font-family:Impact, Impact;letter-spacing:-0.05em;}.cls-1,.cls-3{fill:#f2dc81;}.cls-2{fill:#fff;}</style></defs><title>Artboard 2</title><g id="Layer_2" data-name="Layer 2"><text class="cls-1" transform="translate(15 332.67) scale(1.5 1)">H<tspan class="cls-2" x="101.04" y="0">A</tspan><tspan x="192.6" y="0">N</tspan><tspan class="cls-2" x="290.9" y="0">A</tspan></text><path class="cls-3" d="M546.47,110.52l9.06,7.08a5.18,5.18,0,0,0,4.73.85l11-3.45a5.17,5.17,0,0,1,6.41,6.7l-3.93,10.8a5.17,5.17,0,0,0,.65,4.77l6.67,9.36a5.17,5.17,0,0,1-4.39,8.17l-11.49-.4a5.18,5.18,0,0,0-4.33,2.09L554,165.73a5.16,5.16,0,0,1-9.12-1.65L541.68,153a5.22,5.22,0,0,0-3.33-3.48l-10.9-3.65a5.17,5.17,0,0,1-1.25-9.19l9.53-6.43A5.17,5.17,0,0,0,538,126l.1-11.49A5.17,5.17,0,0,1,546.47,110.52Z"/><path class="cls-3" d="M609.71,161.43l1,7.61a3.45,3.45,0,0,0,1.86,2.61l6.86,3.46a3.45,3.45,0,0,1-.06,6.19l-6.91,3.34a3.44,3.44,0,0,0-1.91,2.58l-1.17,7.59a3.45,3.45,0,0,1-5.91,1.86l-5.31-5.54a3.44,3.44,0,0,0-3-1l-7.58,1.23a3.45,3.45,0,0,1-3.6-5l3.63-6.76a3.44,3.44,0,0,0,0-3.21l-3.51-6.83a3.45,3.45,0,0,1,3.68-5l7.56,1.37a3.45,3.45,0,0,0,3.06-1l5.41-5.45A3.45,3.45,0,0,1,609.71,161.43Z"/><path class="cls-3" d="M171.22,30.75l.33,2.43a1.11,1.11,0,0,0,.6.84l2.19,1.1a1.1,1.1,0,0,1,0,2l-2.21,1.07a1.09,1.09,0,0,0-.61.83l-.37,2.42a1.11,1.11,0,0,1-1.89.6l-1.7-1.77a1.09,1.09,0,0,0-1-.33l-2.42.39A1.1,1.1,0,0,1,163,38.7l1.16-2.16a1.1,1.1,0,0,0,0-1L163,33.33a1.1,1.1,0,0,1,1.17-1.59l2.42.43a1.09,1.09,0,0,0,1-.31l1.73-1.74A1.11,1.11,0,0,1,171.22,30.75Z"/><path class="cls-3" d="M172.67,54.67a22.42,22.42,0,0,1-17.9-35.95A25.46,25.46,0,1,0,188.21,48.4,22.34,22.34,0,0,1,172.67,54.67Z"/><path class="cls-3" d="M193.33,156a42.88,42.88,0,0,0-12.91,6.46s-3.59,2.63-10.53,2.87c0,0,2-2.87,2-4.55s19.85-1.67,36-28.58c0,0,4.43-7.65-1.31-11.24,0,0-2.51-10.28-11.12-4.9,0,0-8.38-2.39-10.65,6.1,0,0-3.11,13-4.66,15.3a18.69,18.69,0,0,1-3.59,6s-3.11-2.75-4.3-2.15c0,0-3.95-11.84-14.24-9.92,0,0-6.45.95-16.14,15.3l-18.54.6s.6-9.09-2.39-11.72c0,0,4.43-2.15,3.71-6.46,0,0,11.48-3.11,12.44-9.21,0,0,1.43-6.33-3.35-3.34,0,0-7.78,6.81-9.69,7.17L124,122s5.14-5,2.51-8.13a2.93,2.93,0,0,0-2.15-1.68s.84-5.17-6.22-3.42c0,0-3.35-9.49-5.62-10.57,0,0-3.53-1.8-3.38-2.87A6.26,6.26,0,0,1,104,96s.6,2.75-.72,3.11a23,23,0,0,0,1.56,10.28s-7.54-1.91-6.94,3.35a16.07,16.07,0,0,0,4.54,6.22l.12,12.55a12.06,12.06,0,0,0,1.68,4,8,8,0,0,0,.36,3.47s-.12,8.25-5,14c0,0-12.19.72-18.65-5.26a18.71,18.71,0,0,0-13-4.19V141.2s9.45-9.69,10.77-18.89c0,0,3,2.87,1.31-7.3,0,0,3.16.61-1.65-3.64a45.84,45.84,0,0,1,8.3-2.88l-.08-.35a45.33,45.33,0,0,0-8.51,3c-.32-.28-.67-.57-1-.88a8.51,8.51,0,0,0-1.29-1.08c5.24-3.87,12.12-8.15,18.55-9.72l-.08-.35c-6.53,1.6-13.5,6-18.78,9.85a9.25,9.25,0,0,0-2.81-1.27C77.74,102.09,85.07,95.23,92,92.24l-.14-.33c-7.06,3-14.51,10-19.72,15.66-2-.41-4.52,0-7,2.54,0,0-9.69-8.73-16.5-9.57,0,0,2-8,9.8-17.7A42.69,42.69,0,0,0,65,50.31S62.5,35.24,60,36.56c0,0-2.63-1-4.5,6.94a216.44,216.44,0,0,1-10.33,22S38.1,83.08,40.62,95.88c0,0-1.2-.6-2.76,1.91,0,0-1.79-2.27-.71-3.71,0,0-2.61,1.88-2.76,3.49-.06-3.38-.63-31.57-3.1-34.94,0,0-7.66-21.05-17.82-25,0,0-8.13-3.35-3.23,4.9,0,0,3.83,12.44,2.27,20.33,0,0,.24,24.87,6.34,31.21a100.56,100.56,0,0,0,11.36,17.1,18.8,18.8,0,0,1,1.32,3.33c0,.62-8.61,7.56-6.94,17,0,0,3.95,16.51,14.11,15.91,0,0,.6,2.75,1.8,3.47,0,0-14.12,16.86-13.28,23.68,0,0-1.31,10.4,13.63,4.66l18.78-14s9.57,12,25.47,14.11c0,0,23.56,2.39,37.44-.48,0,0,7.77-1.55,11.83-5.38a15.76,15.76,0,0,0,14.71,4.31,111.48,111.48,0,0,0,23.44,1.91s20.69.6,27.51-2.87c0,0,10.05-.48,8.85-10.28C208.88,166.56,206.61,155.67,193.33,156Zm-73.49-8.52c-1.7,0-7.17,1.61-7.17,1.61.54-.71,0-5.65,0-5.65a6.21,6.21,0,0,0,4.12-4.3c.81-.09,1.71-3,1.71-3C121,139.53,119.84,147.51,119.84,147.51Z"/></g></svg>