<?xml version="1.0" encoding="utf-8"?>
<!-- Generator: Adobe Illustrator 22.0.1, SVG Export Plug-In . SVG Version: 6.00 Build 0)  -->
<svg version="1.1" id="Layer_2" xmlns="http://www.w3.org/2000/svg" xmlns:xlink="http://www.w3.org/1999/xlink" x="0px" y="0px"
	 viewBox="0 0 40 40" style="enable-background:new 0 0 40 40;" xml:space="preserve">
<style type="text/css">
	.st0{fill:#F2DC81;}
	.st1{fill:#FFFFFF;}
</style>
<circle class="st0" cx="20" cy="20" r="18"/>
<path class="st1" d="M28.1,15.8c-2.7-3.4-6.4-1.4-6.4-1.4c-1.5,0.9-1.6,2.8-1.6,3.8c-0.3-0.1-0.7-0.3-1.1-0.4c-0.1-0.8-0.2-2,0-3.4
	c0,0,0.7-3.7-1.2-6.2c0,0-0.1-0.1-0.1-0.1c-0.3-0.3-1.9-1.5-1.3,0.7c0,0,0.2,0.9-1,2.6c0,0,0,0.1,0,0.1c-0.2,0.5-2.4,5.1,0.7,8
	c-0.2,0.3-0.6,0.9-0.9,2.1c0,0-1.1,2.6-1.2,2.8c0,0-1.7,0.5-1.7,1.7c0,0,0.4-0.4,0.7-0.4c0,0-1.3,1.4-0.7,2.5l0.3-0.8
	c0,0,1.6,4.9,9.8,3.3c0,0,3.5-0.7,4.4-3.8c0,0,0.1,0.5,0,0.7c0,0,0.9-1.1-0.2-2.2c0,0,0.3,0,0.6,0.3c0,0-0.2-1.1-2.1-1.2
	c0,0-1.6-1.9-2-4.3c0,0-0.2-0.6-0.6-0.7l0-0.1c0.4-0.3,0.9-1,1.5-2.5c1,0,2.1,0,2.1,0C30.9,17.4,28.1,15.8,28.1,15.8z M22.1,19.7
	L22.1,19.7C22.1,19.7,22.1,19.7,22.1,19.7C22.1,19.7,22.1,19.7,22.1,19.7z"/>
</svg>
