<svg xmlns="http://www.w3.org/2000/svg" viewBox="0 0 1920 86.32"><defs><style>.cls-1{fill:#f2dc81;}.cls-2{fill:#85b6c5;}.cls-3{fill:none;stroke:#85b6c5;stroke-miterlimit:10;stroke-width:2px;}</style></defs><title>Artboard 5</title><g id="Layer_2" data-name="Layer 2"><path class="cls-1" d="M1176.43,11.89l.24,7.25a2.18,2.18,0,0,0,.94,1.67l6.14,3.86a2,2,0,0,1-.4,3.62l-6.82,2.49a2.09,2.09,0,0,0-1.28,1.37l-1.8,7a2.06,2.06,0,0,1-3.62.74l-4.44-5.71a2,2,0,0,0-1.7-.79l-7.25.42a2,2,0,0,1-1.8-3.15l4.08-6a2,2,0,0,0,.21-1.86l-2.68-6.74a2.06,2.06,0,0,1,2.47-2.73l7,2a1.89,1.89,0,0,0,1.83-.39l5.54-4.63A2.08,2.08,0,0,1,1176.43,11.89Z"/><path class="cls-1" d="M1186.22,38.36l3.37,3.9a1.57,1.57,0,0,0,1.25.5l5.08-.59a1.46,1.46,0,0,1,1.42,2.19l-2.66,4.41a1.35,1.35,0,0,0,0,1.36l2.16,4.67a1.43,1.43,0,0,1-1.67,2l-5-1.13a1.41,1.41,0,0,0-1.28.32L1185,59.44a1.45,1.45,0,0,1-2.43-.91l-.45-5.11a1.5,1.5,0,0,0-.73-1.17l-4.47-2.52a1.45,1.45,0,0,1,.14-2.59l4.72-2a1.42,1.42,0,0,0,.85-1.06l1-5A1.46,1.46,0,0,1,1186.22,38.36Z"/><path class="cls-1" d="M1176.06,59.16l-1.27,5a1.46,1.46,0,0,0,.32,1.29l3.41,3.85a1.45,1.45,0,0,1-1,2.42l-5.16.32a1.45,1.45,0,0,0-1.16.73l-2.66,4.41a1.44,1.44,0,0,1-2.59-.23l-1.87-4.75a1.46,1.46,0,0,0-1-.9l-5-1.13a1.44,1.44,0,0,1-.59-2.53l3.94-3.32a1.49,1.49,0,0,0,.5-1.25l-.46-5.12a1.47,1.47,0,0,1,2.24-1.37l4.31,2.74a1.36,1.36,0,0,0,1.32.1l4.71-2A1.55,1.55,0,0,1,1176.06,59.16Z"/><path class="cls-1" d="M741,13l.35,7.24a2.22,2.22,0,0,1-.8,1.75l-5.8,4.44a2,2,0,0,0,.7,3.58l7,1.92a2.07,2.07,0,0,1,1.38,1.25L746.16,40a2.06,2.06,0,0,0,3.67.43l3.95-6.05a2,2,0,0,1,1.63-.93l7.27-.17A2,2,0,0,0,764.21,30l-4.56-5.65a1.92,1.92,0,0,1-.35-1.83l2.11-6.94a2.06,2.06,0,0,0-2.68-2.52l-6.79,2.59a1.9,1.9,0,0,1-1.86-.24l-6-4.15A2,2,0,0,0,741,13Z"/><path class="cls-1" d="M733.31,40.21l-3,4.16a1.62,1.62,0,0,1-1.21.6L724,44.79a1.46,1.46,0,0,0-1.24,2.3l3,4.18a1.35,1.35,0,0,1,.16,1.35l-1.77,4.84A1.43,1.43,0,0,0,726,59.3l4.9-1.54a1.45,1.45,0,0,1,1.31.21l4.08,3.14a1.45,1.45,0,0,0,2.34-1.1l0-5.14a1.46,1.46,0,0,1,.63-1.22l4.24-2.88a1.45,1.45,0,0,0-.35-2.57l-4.86-1.62a1.46,1.46,0,0,1-.94-1l-1.45-4.91A1.45,1.45,0,0,0,733.31,40.21Z"/><path class="cls-1" d="M745.14,60.1l1.67,4.84a1.42,1.42,0,0,1-.21,1.31l-3.08,4.12a1.51,1.51,0,0,0,1.24,2.37l5.16-.1a1.42,1.42,0,0,1,1.22.63l3,4.18a1.44,1.44,0,0,0,2.56-.44l1.48-4.89a1.46,1.46,0,0,1,.94-1l4.9-1.54a1.43,1.43,0,0,0,.39-2.56l-4.2-3a1.47,1.47,0,0,1-.6-1.22l0-5.13a1.47,1.47,0,0,0-2.34-1.19l-4.07,3.09a1.35,1.35,0,0,1-1.31.2L747,58.28A1.45,1.45,0,0,0,745.14,60.1Z"/><path class="cls-1" d="M773.51,44.81c0-15.7,10.8-24.63,22.61-24.63a20.66,20.66,0,0,1,14.55,6.19l-6.48,7.93c-2.31-2-4.61-3.46-7.78-3.46-5.47,0-10.22,5-10.22,13.54,0,8.78,4,13.68,10.08,13.68a11.66,11.66,0,0,0,8.49-4l6.49,7.77a19.75,19.75,0,0,1-15.41,6.91C783.88,68.71,773.51,60.79,773.51,44.81Z"/><path class="cls-2" d="M809.23,44.23c0-15.41,8.78-24,21.74-24s21.75,8.71,21.75,24S843.93,68.71,831,68.71,809.23,59.64,809.23,44.23Zm30.82,0c0-8.49-3.46-13.39-9.08-13.39s-9.07,4.9-9.07,13.39,3.46,13.83,9.07,13.83S840.05,52.73,840.05,44.23Z"/><path class="cls-2" d="M857.47,21.05h12.67l10.37,20.88L885,52.44h.29c-.58-5-1.58-12.1-1.58-17.86V21.05h11.81v46.8H882.81L872.44,46.9,868,36.46h-.29c.58,5.32,1.58,12.09,1.58,17.85V67.85h-11.8Z"/><path class="cls-2" d="M911.18,31.42H898.79V21.05H936V31.42H923.56V67.85H911.18Z"/><path class="cls-2" d="M944.73,21.05h15L974,67.85H960.86L955.53,45.1c-1.15-4.47-2.3-10.16-3.45-14.84h-.29c-1,4.76-2.16,10.37-3.32,14.84l-5.32,22.75H930.47Zm-4,27.29h22.9v9.57H940.7Z"/><path class="cls-2" d="M972.09,44.81c0-15.7,10.8-24.63,22.61-24.63a20.7,20.7,0,0,1,14.55,6.19l-6.49,7.93c-2.3-2-4.6-3.46-7.77-3.46-5.47,0-10.23,5-10.23,13.54,0,8.78,4,13.68,10.08,13.68a11.7,11.7,0,0,0,8.5-4l6.48,7.77a19.73,19.73,0,0,1-15.41,6.91C982.46,68.71,972.09,60.79,972.09,44.81Z"/><path class="cls-2" d="M1020.91,31.42h-12.39V21.05h37.16V31.42h-12.39V67.85h-12.38Z"/><path class="cls-2" d="M1059.79,21.05H1073l7,19.15c.87,2.59,1.59,5.47,2.45,8.21h.29c.86-2.74,1.58-5.62,2.45-8.21l6.77-19.15h13.24v46.8h-11.23V54c0-4.76,1-12,1.59-16.71h-.29l-3.89,11.23L1085.71,64h-6.63l-5.76-15.48-3.74-11.23h-.29c.58,4.68,1.59,12,1.59,16.71V67.85h-11.09Z"/><path class="cls-2" d="M1112.06,21.05h30.24V31.42h-17.86v7.34h15.27V49.13h-15.27v8.35H1143V67.85h-31Z"/><line class="cls-3" x1="774.17" y1="77.85" x2="1145.51" y2="77.85"/></g></svg>